<?xml version="1.0" encoding="UTF-8" standalone="no"?>
<svg xmlns="http://www.w3.org/2000/svg" xmlns:xlink="http://www.w3.org/1999/xlink" xmlns:serif="http://www.serif.com/" width="100%" height="100%" viewBox="0 0 312 117" version="1.1" xml:space="preserve" style="fill-rule:evenodd;clip-rule:evenodd;stroke-linecap:round;stroke-linejoin:round;stroke-miterlimit:1.5;">
    <g transform="matrix(1,0,0,1,-1424,-23.4888)">
        <g id="Artboard3" transform="matrix(0.617921,0,0,0.832223,543.874,23.4888)">
            <rect x="1424.33" y="0" width="504" height="140" style="fill:none;"></rect>
            <g transform="matrix(1.61833,0,0,1.2016,-880.707,-28.2242)">
                <g transform="matrix(134.668,0,0,134.668,1433.43,131.199)">
                    <path d="M0.073,-0L0.073,-0.716L0.168,-0.716L0.168,-0.084L0.521,-0.084L0.521,-0L0.073,-0Z" style="fill:rgb(130,130,130);fill-rule:nonzero;"></path>
                </g>
                <g transform="matrix(134.668,0,0,134.668,1508.33,131.199)">
                    <path d="M0.079,-0L0.079,-0.716L0.597,-0.716L0.597,-0.631L0.174,-0.631L0.174,-0.412L0.496,-0.412L0.496,-0.328L0.174,-0.328L0.174,-0.084L0.613,-0.084L0.613,-0L0.079,-0Z" style="fill:rgb(130,130,130);fill-rule:nonzero;"></path>
                </g>
                <g transform="matrix(134.668,0,0,96.0707,1598.15,131.199)">
                    <rect x="0.066" y="-0.712" width="0.088" height="0.712" style="fill:rgb(130,130,130);fill-rule:nonzero;"></rect>
                </g>
                <g transform="matrix(134.668,0,0,134.668,1628.07,131.199)">
                    <path d="M-0.001,-0L0.273,-0.716L0.375,-0.716L0.668,-0L0.561,-0L0.477,-0.217L0.178,-0.217L0.099,-0L-0.001,-0ZM0.205,-0.294L0.448,-0.294L0.373,-0.492C0.35,-0.552 0.333,-0.602 0.322,-0.641C0.313,-0.595 0.3,-0.549 0.284,-0.504L0.205,-0.294Z" style="fill:rgb(130,130,130);fill-rule:nonzero;"></path>
                </g>
            </g>
            <g transform="matrix(0.602895,0,0,0.447647,1060.27,-5.00563)">
                <path d="M1130.93,97.601C1127.77,100.709 1120.42,102.155 1114.45,101.823C1091.21,100.529 1083.23,88.24 1082.04,85.614C1077.58,75.795 1075.98,59.616 1085.95,49.312C1094.32,40.656 1117.84,39.213 1129.62,45.102C1133.66,47.124 1137.26,49.816 1139.64,53.282C1142.44,57.347 1142.83,61.503 1143.34,62.515C1143.89,63.629 1143.75,69.101 1143.73,70.694C1143.63,78.227 1139.51,81.276 1139.45,81.38C1138.96,82.124 1140.98,88.552 1144.46,89.823C1147.05,90.771 1158.27,94.367 1158.18,94.439C1157.46,95.006 1156.69,95.508 1156.04,96.15C1154.69,97.478 1148.09,100.125 1143.34,100.445C1139.36,100.713 1129.94,97.601 1130.93,97.601Z" style="fill:rgb(255,156,0);stroke:black;stroke-width:5.59px;"></path>
            </g>
        </g>
    </g>
</svg>
